<svg width="21" height="21" viewBox="0 0 21 21" fill="none" xmlns="http://www.w3.org/2000/svg">
<path d="M9.71218 18.9315C9.94582 19.0155 10.2212 19.0513 10.5002 19.0513C10.7792 19.0513 11.0545 19.0155 11.2882 18.9315C12.9764 18.3524 15.1547 17.0409 16.9121 15.1173C18.6707 13.1922 20.0136 10.6476 20.0136 7.60419C20.0136 4.49184 17.4899 1.94958 14.3852 1.94958C12.9144 1.94958 11.5361 2.51034 10.5002 3.51602C9.46427 2.51034 8.086 1.94958 6.61517 1.94958C3.51058 1.94958 0.986816 4.48298 0.986816 7.60419C0.986816 10.6432 2.32967 13.1879 4.08826 15.114C5.84563 17.0387 8.02389 18.3524 9.71218 18.9315ZM2.51353 7.60419C2.51353 5.32651 4.35615 3.4763 6.61517 3.4763C7.91095 3.4763 9.10423 4.0725 9.89797 5.13061C10.0442 5.32877 10.2802 5.42317 10.5089 5.42317C10.7378 5.42317 10.9738 5.3287 11.1201 5.13039C11.8962 4.08137 13.098 3.4763 14.394 3.4763C16.653 3.4763 18.4956 5.32651 18.4956 7.60419C18.4956 10.5595 17.0748 12.8589 15.3973 14.5093C13.7187 16.1607 11.7906 17.1543 10.7984 17.4953C10.7359 17.516 10.625 17.529 10.5046 17.529C10.3841 17.529 10.2731 17.516 10.2106 17.4952C9.21421 17.1544 7.28613 16.1586 5.60862 14.5061C3.93217 12.8546 2.51353 10.5551 2.51353 7.60419Z" fill="#5469FF" stroke="#5469FF" stroke-width="0.214214"/>
</svg>
