<svg width="15" height="13" viewBox="0 0 15 13" fill="none" xmlns="http://www.w3.org/2000/svg">
<path d="M0 2.67725C0 1.91705 0.616267 1.30078 1.37647 1.30078H13.3059C14.0661 1.30078 14.6824 1.91705 14.6824 2.67725V10.3243C14.6824 11.0845 14.0661 11.7008 13.3059 11.7008H1.37647C0.616267 11.7008 0 11.0845 0 10.3243V2.67725Z" fill="#E5EEFF"/>
<path d="M10.0941 8.2749C9.94809 8.2749 9.80805 8.33291 9.70479 8.43616C9.60154 8.53942 9.54353 8.67946 9.54353 8.82549C9.54353 8.97151 9.60154 9.11156 9.70479 9.21481C9.80805 9.31807 9.94809 9.37608 10.0941 9.37608H11.9294C12.0754 9.37608 12.2155 9.31807 12.3187 9.21481C12.422 9.11156 12.48 8.97151 12.48 8.82549C12.48 8.67946 12.422 8.53942 12.3187 8.43616C12.2155 8.33291 12.0754 8.2749 11.9294 8.2749H10.0941ZM1.68235 1.30078C1.23617 1.30078 0.808252 1.47803 0.49275 1.79353C0.177247 2.10903 0 2.53695 0 2.98313V10.0184C0 10.4646 0.177247 10.8925 0.49275 11.208C0.808252 11.5235 1.23617 11.7008 1.68235 11.7008H13C13.4462 11.7008 13.8741 11.5235 14.1896 11.208C14.5051 10.8925 14.6824 10.4646 14.6824 10.0184V2.98313C14.6824 2.53695 14.5051 2.10903 14.1896 1.79353C13.8741 1.47803 13.4462 1.30078 13 1.30078H1.68235ZM0.917647 10.0184V5.27725H13.7647V10.0184C13.7647 10.4405 13.4221 10.7831 13 10.7831H1.68235C1.26024 10.7831 0.917647 10.4405 0.917647 10.0184ZM0.917647 4.3596V2.98313C0.917647 2.56102 1.26024 2.21843 1.68235 2.21843H13C13.4221 2.21843 13.7647 2.56102 13.7647 2.98313V4.3596H0.917647Z" fill="#5469FF"/>
</svg>
