<svg width="21" height="21" viewBox="0 0 21 21" fill="none" xmlns="http://www.w3.org/2000/svg">
<path fill-rule="evenodd" clip-rule="evenodd" d="M2 5.88541V3.98652C2 3.06437 2.55505 2.22032 3.43372 1.80723L3.71826 1.67361C4.7403 1.19364 5.87474 0.963562 7.01658 1.00469C8.15843 1.04581 9.27078 1.35679 10.2507 1.90885C10.8429 2.24273 11.505 2.45235 12.1915 2.52332C12.8781 2.5943 13.5729 2.52496 14.2282 2.32006L17.5235 1.28875C17.7176 1.2281 17.9258 1.21939 18.1249 1.26358C18.324 1.30778 18.506 1.40314 18.6507 1.53899C18.7953 1.67484 18.8969 1.84582 18.9439 2.03279C18.991 2.21977 18.9817 2.41535 18.9171 2.59765L17.0937 7.73818L18.9211 12.03C18.9769 12.1609 19.0036 12.3011 18.9996 12.4421C18.9956 12.5831 18.961 12.7218 18.8978 12.8497C18.8347 12.9777 18.7444 13.0921 18.6324 13.1861C18.5205 13.2801 18.3893 13.3516 18.2469 13.3963L14.8624 14.4558C13.9329 14.7468 12.9473 14.8455 11.9733 14.7451C10.9993 14.6448 10.06 14.3477 9.21972 13.8743C8.5289 13.4849 7.74465 13.2655 6.93958 13.2364C6.1345 13.2073 5.33462 13.3694 4.61397 13.7077L4.00381 13.9947V19.059C4.00381 19.3086 3.89825 19.5479 3.71036 19.7244C3.52246 19.9009 3.26762 20 3.0019 20C2.73618 20 2.48134 19.9009 2.29345 19.7244C2.10556 19.5479 2 19.3086 2 19.059V5.88541Z" fill="#5469FF"/>
</svg>
