<svg width="21" height="21" viewBox="0 0 21 21" fill="none" xmlns="http://www.w3.org/2000/svg">
<path d="M19.25 13.125L14 7.875M19.25 7.875L14 13.125" stroke="#5469FF" stroke-width="2.25" stroke-linecap="round"/>
<path d="M1.75 13.0891V7.91001C1.75 7.40776 2.142 7.00001 2.625 7.00001H5.76275C5.87854 6.9996 5.99305 6.97574 6.09937 6.92988C6.20569 6.88401 6.30162 6.81708 6.38138 6.73314L9.00638 3.76864C9.55763 3.19464 10.5 3.60151 10.5 4.41264V16.5874C10.5 17.4046 9.54625 17.808 8.9985 17.2226L6.38225 14.2748C6.30227 14.1884 6.20537 14.1195 6.09759 14.0722C5.9898 14.0249 5.87344 14.0004 5.75575 14H2.625C2.142 14 1.75 13.5923 1.75 13.0891Z" stroke="#5469FF" stroke-width="2.25" stroke-linecap="round" stroke-linejoin="round"/>
</svg>
